HIERARCHY
ROOT Hips
{
	OFFSET 54.055698 -5.681604 85.585197
	CHANNELS 6 Xposition Yposition Zposition Xrotation Yrotation Zrotation
	JOINT spine
	{
		OFFSET 0.000000 -0.367607 6.392601
		CHANNELS 3 Xrotation Yrotation Zrotation
		JOINT spine1
		{
			OFFSET 0.000000 -0.000002 9.176109
			CHANNELS 3 Xrotation Yrotation Zrotation
			JOINT spine2
			{
				OFFSET 0.000000 -0.000001 8.792381
				CHANNELS 3 Xrotation Yrotation Zrotation
				JOINT Neck
				{
					OFFSET 0.000000 -1.076243 22.573700
					CHANNELS 3 Xrotation Yrotation Zrotation
					JOINT Head
					{
						OFFSET 0.000000 -0.000001 6.820114
						CHANNELS 3 Xrotation Yrotation Zrotation
						End Site
						{
							OFFSET 0.000000 5.444268 16.508499
						}
					}
				}
				JOINT RightShoulder
				{
					OFFSET -3.702209 0.515507 9.495087
					CHANNELS 3 Xrotation Yrotation Zrotation
					JOINT RightArm
					{
						OFFSET 0.000000 -0.000002 12.453705
						CHANNELS 3 Xrotation Yrotation Zrotation
						JOINT RightArmRoll
						{
							OFFSET 0.000000 -0.000001 6.286865
							CHANNELS 3 Xrotation Yrotation Zrotation
							JOINT RightForeArm
							{
								OFFSET 0.000000 -0.000003 18.311401
								CHANNELS 3 Xrotation Yrotation Zrotation
								JOINT RightForeArmRoll
								{
									OFFSET 0.000000 -0.000001 7.054825
									CHANNELS 3 Xrotation Yrotation Zrotation
									JOINT RightHand
									{
										OFFSET 0.000000 -0.000002 14.157501
										CHANNELS 3 Xrotation Yrotation Zrotation
										End Site
										{
											OFFSET 0.000000 0.000000 0.100006
										}
									}
								}
							}
						}
					}
				}
				JOINT LeftShoulder
				{
					OFFSET 3.702209 0.515507 9.495087
					CHANNELS 3 Xrotation Yrotation Zrotation
					JOINT LeftArm
					{
						OFFSET 0.000000 -0.000002 12.453705
						CHANNELS 3 Xrotation Yrotation Zrotation
						JOINT LeftArmRoll
						{
							OFFSET 0.000000 -0.000001 6.286865
							CHANNELS 3 Xrotation Yrotation Zrotation
							JOINT LeftForeArm
							{
								OFFSET 0.000000 -0.000003 18.311401
								CHANNELS 3 Xrotation Yrotation Zrotation
								JOINT LeftForeArmRoll
								{
									OFFSET 0.000000 -0.000001 7.054825
									CHANNELS 3 Xrotation Yrotation Zrotation
									JOINT LeftHand
									{
										OFFSET 0.000000 -0.000002 14.157501
										CHANNELS 3 Xrotation Yrotation Zrotation
										End Site
										{
											OFFSET 0.000000 0.000000 0.100006
										}
									}
								}
							}
						}
					}
				}
			}
		}
	}
	JOINT RightUpLeg
	{
		OFFSET -5.666161 0.871610 -1.039032
		CHANNELS 3 Xrotation Yrotation Zrotation
		JOINT RightUpLegRoll
		{
			OFFSET 0.000000 -0.000003 16.600502
			CHANNELS 3 Xrotation Yrotation Zrotation
			JOINT RightLeg
			{
				OFFSET 0.000000 0.000003 -20.557198
				CHANNELS 3 Xrotation Yrotation Zrotation
				JOINT RightLegRoll
				{
					OFFSET 0.000000 -0.000003 20.624397
					CHANNELS 3 Xrotation Yrotation Zrotation
					JOINT RightFoot
					{
						OFFSET 0.000000 -0.000002 17.166397
						CHANNELS 3 Xrotation Yrotation Zrotation
						JOINT RightToeBase
						{
							OFFSET 0.000000 -0.000002 14.350204
							CHANNELS 3 Xrotation Yrotation Zrotation
							End Site
							{
								OFFSET 0.006081 0.801060 6.949707
							}
						}
					}
				}
			}
		}
	}
	JOINT LeftUpLeg
	{
		OFFSET 5.666161 0.871610 -1.039032
		CHANNELS 3 Xrotation Yrotation Zrotation
		JOINT LeftUpLegRoll
		{
			OFFSET 0.000000 -0.000003 16.600601
			CHANNELS 3 Xrotation Yrotation Zrotation
			JOINT LeftLeg
			{
				OFFSET 0.000000 -0.000003 20.557098
				CHANNELS 3 Xrotation Yrotation Zrotation
				JOINT LeftLegRoll
				{
					OFFSET 0.000000 -0.000003 20.815102
					CHANNELS 3 Xrotation Yrotation Zrotation
					JOINT LeftFoot
					{
						OFFSET 0.000000 -0.000002 16.975693
						CHANNELS 3 Xrotation Yrotation Zrotation
						JOINT LeftToeBase
						{
							OFFSET 0.000000 -0.000002 14.350204
							CHANNELS 3 Xrotation Yrotation Zrotation
							End Site
							{
								OFFSET -0.027260 0.801059 6.949707
							}
						}
					}
				}
			}
		}
	}
}
MOTION
Frames: 5
Frame Time: 0.041667
53.846798 -7.101945 85.539406 -2.872929 1.063522 -2.063091 -1.377488 0.042701 -0.167588 1.248002 0.110220 -0.323943 2.893065 0.106331 -0.325237 14.902260 4.564724 -0.693230 15.703698 -3.520349 -0.273821 -19.281744 -20.848056 -23.025536 -114.104225 -133.749666 -58.462683 -0.000000 0.000001 -0.000001 39.799331 9.020918 -0.746405 -0.000004 0.000001 -3.008420 -5.000212 -7.998744 0.000193 -22.304951 21.346810 27.668871 -116.222444 130.219742 67.141893 0.000004 0.000002 0.000003 40.862416 -15.365585 1.253337 -0.000004 -0.000007 3.009230 -5.000231 7.998873 -0.000147 0.771964 -175.687383 1.231133 -179.999991 0.000005 -1.079998 174.128242 -3.751269 -0.582512 -0.000004 -0.000001 0.055233 68.405834 6.875620 2.208752 25.465339 -7.355625 -0.000003 0.240968 174.610043 0.528695 -0.000005 -0.000004 -1.014200 -8.840274 0.551756 0.697102 -0.000006 -0.000000 -0.062186 70.449365 -6.209401 -3.863214 25.458067 7.355620 -0.001725 
53.852592 -7.098283 85.541100 -2.877847 1.065645 -2.052173 -1.375860 0.042481 -0.167378 1.251263 0.109322 -0.323367 2.896324 0.105440 -0.324655 14.875710 4.561783 -0.693481 15.679906 -3.517909 -0.276281 -19.288031 -20.961299 -23.034762 -114.044447 -133.610494 -58.610994 0.000000 0.000001 -0.000001 39.313951 9.098236 -0.776205 -0.000002 -0.000000 -3.008420 -5.000212 -7.998744 0.000193 -22.290389 21.436622 27.642348 -116.159770 130.062593 67.327688 0.000004 0.000002 0.000002 40.268494 -15.411625 1.270265 -0.000003 -0.000007 3.009210 -5.000230 7.998875 -0.000148 0.778253 -175.690402 1.229225 -179.999991 0.000005 -1.079999 174.128419 -3.749286 -0.583293 -0.000004 -0.000001 0.055236 68.405629 6.875680 2.208476 25.465344 -7.355625 -0.000004 0.240179 174.612038 0.535661 -0.000005 -0.000005 -1.013990 -8.843730 0.541921 0.697646 -0.000007 0.000000 -0.061719 70.447063 -6.206003 -3.872056 25.458068 7.355619 -0.001725 
53.859398 -7.098063 85.540504 -2.881941 1.067958 -2.041609 -1.374380 0.042499 -0.167172 1.254223 0.108534 -0.323041 2.899285 0.104657 -0.324319 14.848336 4.558123 -0.693227 15.657003 -3.514525 -0.278373 -19.293246 -21.077943 -23.042048 -113.987135 -133.471076 -58.761005 0.000001 0.000001 -0.000003 38.829219 9.172869 -0.804220 -0.000005 0.000001 -3.008420 -5.000212 -7.998745 0.000192 -22.276042 21.526239 27.616366 -116.095567 129.905704 67.513606 0.000004 0.000001 0.000001 39.670306 -15.456262 1.285826 -0.000004 -0.000008 3.009199 -5.000227 7.998874 -0.000149 0.783564 -175.694404 1.226880 -179.999991 0.000005 -1.079998 174.128529 -3.747289 -0.583081 -0.000004 -0.000001 0.055239 68.405540 6.875707 2.208287 25.465341 -7.355625 -0.000005 0.238600 174.611054 0.539483 -0.000005 -0.000004 -1.013760 -8.847849 0.535652 0.698330 -0.000006 0.000000 -0.061178 70.445253 -6.203183 -3.879069 25.458068 7.355619 -0.001726 
53.856991 -7.097013 85.540901 -2.885106 1.070442 -2.031095 -1.373102 0.042775 -0.166977 1.256793 0.107875 -0.322934 2.901865 0.104002 -0.324200 14.820360 4.554154 -0.692642 15.634696 -3.511006 -0.280108 -19.298018 -21.197813 -23.048678 -113.932186 -133.331590 -58.914493 0.000000 0.000001 -0.000003 38.344450 9.244217 -0.831288 -0.000003 0.000000 -3.008420 -5.000205 -7.998746 0.000195 -22.261694 21.615599 27.590320 -116.030202 129.748978 67.699046 0.000003 0.000003 0.000002 39.068002 -15.500086 1.301445 -0.000003 -0.000007 3.009190 -5.000232 7.998878 -0.000146 0.787881 -175.699404 1.224096 -179.999991 0.000005 -1.079998 174.128610 -3.744314 -0.582771 -0.000004 -0.000001 0.055241 68.405451 6.875774 2.208006 25.465343 -7.355625 -0.000004 0.235965 174.609046 0.540904 -0.000005 -0.000004 -1.013520 -8.852806 0.532161 0.699179 -0.000005 0.000000 -0.060550 70.444085 -6.200722 -3.885011 25.458070 7.355619 -0.001725 
53.853195 -7.090925 85.539902 -2.887495 1.073107 -2.020656 -1.371959 0.043273 -0.166794 1.259052 0.107324 -0.323031 2.904125 0.103449 -0.324280 14.791970 4.549709 -0.691739 15.612986 -3.507139 -0.281541 -19.302350 -21.320917 -23.054354 -113.879887 -133.191872 -59.071581 0.000000 -0.000001 -0.000003 37.859797 9.312446 -0.857320 -0.000003 0.000001 -3.008420 -5.000214 -7.998744 0.000194 -22.247227 21.704721 27.564060 -115.963607 129.592198 67.884151 0.000004 0.000003 0.000003 38.461936 -15.542778 1.316723 -0.000003 -0.000007 3.009180 -5.000233 7.998875 -0.000147 0.791365 -175.704403 1.220898 -179.999991 0.000005 -1.080996 174.128665 -3.741324 -0.582461 -0.000005 -0.000001 0.055244 68.405362 6.875840 2.207823 25.465341 -7.355624 -0.000004 0.232442 174.606041 0.540140 -0.000004 -0.000005 -1.013260 -8.858483 0.531156 0.700172 -0.000007 0.000000 -0.059848 70.443429 -6.198581 -3.889777 25.458067 7.355620 -0.001726 
